<mxfile host="app.diagrams.net" modified="2024-06-14T18:23:50.374Z" agent="Mozilla/5.0 (Windows NT 10.0; Win64; x64) AppleWebKit/537.36 (KHTML, like Gecko) Chrome/125.0.0.0 Safari/537.36" etag="nlK9xaBh4iCXKLlWkfkS" version="24.5.4" type="device">
  <diagram name="Page-1" id="_Y2IuD8lEzFMxkLg278f">
    <mxGraphModel dx="1615" dy="815" grid="1" gridSize="10" guides="1" tooltips="1" connect="1" arrows="1" fold="1" page="1" pageScale="1" pageWidth="1169" pageHeight="827" math="0" shadow="0">
      <root>
        <mxCell id="0" />
        <mxCell id="1" parent="0" />
        <mxCell id="T2mrMGNM1jW11NVGNgAQ-1" value="نرم‌افزار مدیریت صندوقداری فروشگاه زنجیره‌ای" style="swimlane;whiteSpace=wrap;html=1;fontSize=18;" parent="1" vertex="1">
          <mxGeometry x="110" y="80" width="970" height="680" as="geometry" />
        </mxCell>
        <mxCell id="QuEZP8PnhDWulCvqXEfY-8" value="ثبت نام مشتری در سامانه صندوق رفاه فروشگاه" style="ellipse;whiteSpace=wrap;html=1;fontSize=22;" vertex="1" parent="T2mrMGNM1jW11NVGNgAQ-1">
          <mxGeometry x="417.5" y="80" width="235" height="100" as="geometry" />
        </mxCell>
        <mxCell id="QuEZP8PnhDWulCvqXEfY-11" value="مشاهده سوابق خرید مشتری" style="ellipse;whiteSpace=wrap;html=1;fontSize=22;" vertex="1" parent="T2mrMGNM1jW11NVGNgAQ-1">
          <mxGeometry x="520" y="190" width="235" height="100" as="geometry" />
        </mxCell>
        <mxCell id="QuEZP8PnhDWulCvqXEfY-14" value="تعیین نرخ تخفیف" style="ellipse;whiteSpace=wrap;html=1;fontSize=22;" vertex="1" parent="T2mrMGNM1jW11NVGNgAQ-1">
          <mxGeometry x="340" y="360" width="190" height="60" as="geometry" />
        </mxCell>
        <mxCell id="QuEZP8PnhDWulCvqXEfY-16" value="مدیریت حساب کاربری مشتری" style="ellipse;whiteSpace=wrap;html=1;fontSize=22;" vertex="1" parent="T2mrMGNM1jW11NVGNgAQ-1">
          <mxGeometry x="580" y="340" width="252.5" height="60" as="geometry" />
        </mxCell>
        <mxCell id="QuEZP8PnhDWulCvqXEfY-19" value="مدیریت سبد خرید مشتری" style="ellipse;whiteSpace=wrap;html=1;fontSize=22;" vertex="1" parent="T2mrMGNM1jW11NVGNgAQ-1">
          <mxGeometry x="260" y="150" width="180" height="70" as="geometry" />
        </mxCell>
        <mxCell id="QuEZP8PnhDWulCvqXEfY-21" value="مدیریت انبار" style="ellipse;whiteSpace=wrap;html=1;fontSize=22;" vertex="1" parent="T2mrMGNM1jW11NVGNgAQ-1">
          <mxGeometry x="190" y="460" width="190" height="60" as="geometry" />
        </mxCell>
        <mxCell id="QuEZP8PnhDWulCvqXEfY-23" value="ثبت تراکنش خرید مشتری" style="ellipse;whiteSpace=wrap;html=1;fontSize=22;" vertex="1" parent="T2mrMGNM1jW11NVGNgAQ-1">
          <mxGeometry x="20" y="205" width="180" height="65" as="geometry" />
        </mxCell>
        <mxCell id="QuEZP8PnhDWulCvqXEfY-28" style="edgeStyle=orthogonalEdgeStyle;rounded=0;orthogonalLoop=1;jettySize=auto;html=1;entryX=1;entryY=0.5;entryDx=0;entryDy=0;dashed=1;dashPattern=8 8;" edge="1" parent="T2mrMGNM1jW11NVGNgAQ-1" source="QuEZP8PnhDWulCvqXEfY-24" target="QuEZP8PnhDWulCvqXEfY-23">
          <mxGeometry relative="1" as="geometry" />
        </mxCell>
        <mxCell id="QuEZP8PnhDWulCvqXEfY-29" value="&lt;font style=&quot;font-size: 17px;&quot;&gt;&amp;lt;&amp;lt;include&amp;gt;&amp;gt;&lt;/font&gt;" style="edgeLabel;html=1;align=center;verticalAlign=middle;resizable=0;points=[];" vertex="1" connectable="0" parent="QuEZP8PnhDWulCvqXEfY-28">
          <mxGeometry x="-0.4483" y="5" relative="1" as="geometry">
            <mxPoint x="60" y="-37" as="offset" />
          </mxGeometry>
        </mxCell>
        <mxCell id="QuEZP8PnhDWulCvqXEfY-24" value="ویرایش موجودی جدید کالاها" style="ellipse;whiteSpace=wrap;html=1;fontSize=22;" vertex="1" parent="T2mrMGNM1jW11NVGNgAQ-1">
          <mxGeometry x="235" y="270" width="230" height="50" as="geometry" />
        </mxCell>
        <mxCell id="QuEZP8PnhDWulCvqXEfY-30" value="درخواست کالا از شرکت‌ها" style="ellipse;whiteSpace=wrap;html=1;fontSize=22;" vertex="1" parent="T2mrMGNM1jW11NVGNgAQ-1">
          <mxGeometry x="210" y="550" width="190" height="60" as="geometry" />
        </mxCell>
        <mxCell id="QuEZP8PnhDWulCvqXEfY-32" value="اعطای دسترسی به کادر" style="ellipse;whiteSpace=wrap;html=1;fontSize=22;" vertex="1" parent="T2mrMGNM1jW11NVGNgAQ-1">
          <mxGeometry x="530" y="540" width="252.5" height="60" as="geometry" />
        </mxCell>
        <mxCell id="QuEZP8PnhDWulCvqXEfY-33" style="edgeStyle=orthogonalEdgeStyle;rounded=0;orthogonalLoop=1;jettySize=auto;html=1;entryX=1;entryY=0.5;entryDx=0;entryDy=0;" edge="1" parent="T2mrMGNM1jW11NVGNgAQ-1" target="QuEZP8PnhDWulCvqXEfY-32">
          <mxGeometry relative="1" as="geometry">
            <mxPoint x="782.5" y="585" as="targetPoint" />
            <mxPoint x="1000" y="540" as="sourcePoint" />
            <Array as="points">
              <mxPoint x="820" y="541" />
              <mxPoint x="820" y="570" />
            </Array>
          </mxGeometry>
        </mxCell>
        <mxCell id="QuEZP8PnhDWulCvqXEfY-9" style="edgeStyle=orthogonalEdgeStyle;rounded=0;orthogonalLoop=1;jettySize=auto;html=1;entryX=0;entryY=0.5;entryDx=0;entryDy=0;" edge="1" parent="1" source="QuEZP8PnhDWulCvqXEfY-1" target="QuEZP8PnhDWulCvqXEfY-8">
          <mxGeometry relative="1" as="geometry" />
        </mxCell>
        <mxCell id="QuEZP8PnhDWulCvqXEfY-20" style="edgeStyle=orthogonalEdgeStyle;rounded=0;orthogonalLoop=1;jettySize=auto;html=1;entryX=0;entryY=0.5;entryDx=0;entryDy=0;" edge="1" parent="1" source="QuEZP8PnhDWulCvqXEfY-1" target="QuEZP8PnhDWulCvqXEfY-19">
          <mxGeometry relative="1" as="geometry">
            <Array as="points">
              <mxPoint x="165" y="170" />
              <mxPoint x="165" y="265" />
            </Array>
          </mxGeometry>
        </mxCell>
        <mxCell id="QuEZP8PnhDWulCvqXEfY-25" style="edgeStyle=orthogonalEdgeStyle;rounded=0;orthogonalLoop=1;jettySize=auto;html=1;entryX=0;entryY=0.5;entryDx=0;entryDy=0;" edge="1" parent="1" source="QuEZP8PnhDWulCvqXEfY-1" target="QuEZP8PnhDWulCvqXEfY-23">
          <mxGeometry relative="1" as="geometry">
            <Array as="points">
              <mxPoint x="100" y="190" />
              <mxPoint x="100" y="317" />
            </Array>
          </mxGeometry>
        </mxCell>
        <mxCell id="QuEZP8PnhDWulCvqXEfY-1" value="صندوقدار" style="shape=umlActor;verticalLabelPosition=bottom;verticalAlign=top;html=1;outlineConnect=0;fontSize=18;" vertex="1" parent="1">
          <mxGeometry x="30" y="110" width="40" height="90" as="geometry" />
        </mxCell>
        <mxCell id="QuEZP8PnhDWulCvqXEfY-10" style="edgeStyle=orthogonalEdgeStyle;rounded=0;orthogonalLoop=1;jettySize=auto;html=1;entryX=1;entryY=0.5;entryDx=0;entryDy=0;" edge="1" parent="1" source="QuEZP8PnhDWulCvqXEfY-2" target="QuEZP8PnhDWulCvqXEfY-8">
          <mxGeometry relative="1" as="geometry" />
        </mxCell>
        <mxCell id="QuEZP8PnhDWulCvqXEfY-13" style="edgeStyle=orthogonalEdgeStyle;rounded=0;orthogonalLoop=1;jettySize=auto;html=1;entryX=1;entryY=0.5;entryDx=0;entryDy=0;" edge="1" parent="1" source="QuEZP8PnhDWulCvqXEfY-2" target="QuEZP8PnhDWulCvqXEfY-11">
          <mxGeometry relative="1" as="geometry">
            <Array as="points">
              <mxPoint x="973" y="170" />
              <mxPoint x="973" y="320" />
            </Array>
          </mxGeometry>
        </mxCell>
        <mxCell id="QuEZP8PnhDWulCvqXEfY-17" style="edgeStyle=orthogonalEdgeStyle;rounded=0;orthogonalLoop=1;jettySize=auto;html=1;entryX=1;entryY=0.5;entryDx=0;entryDy=0;" edge="1" parent="1" source="QuEZP8PnhDWulCvqXEfY-2" target="QuEZP8PnhDWulCvqXEfY-16">
          <mxGeometry relative="1" as="geometry">
            <Array as="points">
              <mxPoint x="1001" y="190" />
              <mxPoint x="1001" y="450" />
            </Array>
          </mxGeometry>
        </mxCell>
        <mxCell id="QuEZP8PnhDWulCvqXEfY-2" value="مشتری" style="shape=umlActor;verticalLabelPosition=bottom;verticalAlign=top;html=1;outlineConnect=0;fontSize=18;" vertex="1" parent="1">
          <mxGeometry x="1110" y="110" width="40" height="90" as="geometry" />
        </mxCell>
        <mxCell id="QuEZP8PnhDWulCvqXEfY-18" style="edgeStyle=orthogonalEdgeStyle;rounded=0;orthogonalLoop=1;jettySize=auto;html=1;entryX=1;entryY=1;entryDx=0;entryDy=0;" edge="1" parent="1" source="QuEZP8PnhDWulCvqXEfY-3" target="QuEZP8PnhDWulCvqXEfY-16">
          <mxGeometry relative="1" as="geometry" />
        </mxCell>
        <mxCell id="QuEZP8PnhDWulCvqXEfY-3" value="ریاست&lt;div&gt;فروشگاه&lt;/div&gt;" style="shape=umlActor;verticalLabelPosition=bottom;verticalAlign=top;html=1;outlineConnect=0;fontSize=18;" vertex="1" parent="1">
          <mxGeometry x="1110" y="560" width="40" height="90" as="geometry" />
        </mxCell>
        <mxCell id="QuEZP8PnhDWulCvqXEfY-12" style="edgeStyle=orthogonalEdgeStyle;rounded=0;orthogonalLoop=1;jettySize=auto;html=1;entryX=0;entryY=0.5;entryDx=0;entryDy=0;" edge="1" parent="1" source="QuEZP8PnhDWulCvqXEfY-6" target="QuEZP8PnhDWulCvqXEfY-11">
          <mxGeometry relative="1" as="geometry">
            <Array as="points">
              <mxPoint x="50" y="420" />
              <mxPoint x="590" y="420" />
              <mxPoint x="590" y="320" />
            </Array>
          </mxGeometry>
        </mxCell>
        <mxCell id="QuEZP8PnhDWulCvqXEfY-15" style="edgeStyle=orthogonalEdgeStyle;rounded=0;orthogonalLoop=1;jettySize=auto;html=1;entryX=0;entryY=0.5;entryDx=0;entryDy=0;" edge="1" parent="1" source="QuEZP8PnhDWulCvqXEfY-6" target="QuEZP8PnhDWulCvqXEfY-14">
          <mxGeometry relative="1" as="geometry">
            <Array as="points">
              <mxPoint x="120" y="369" />
              <mxPoint x="120" y="470" />
            </Array>
          </mxGeometry>
        </mxCell>
        <mxCell id="QuEZP8PnhDWulCvqXEfY-6" value="مدیریت&amp;nbsp;&lt;div&gt;صندوق رفاه&lt;/div&gt;" style="shape=umlActor;verticalLabelPosition=bottom;verticalAlign=top;html=1;outlineConnect=0;fontSize=18;" vertex="1" parent="1">
          <mxGeometry x="30" y="324" width="40" height="90" as="geometry" />
        </mxCell>
        <mxCell id="QuEZP8PnhDWulCvqXEfY-22" style="edgeStyle=orthogonalEdgeStyle;rounded=0;orthogonalLoop=1;jettySize=auto;html=1;entryX=0;entryY=0.5;entryDx=0;entryDy=0;" edge="1" parent="1" source="QuEZP8PnhDWulCvqXEfY-7" target="QuEZP8PnhDWulCvqXEfY-21">
          <mxGeometry relative="1" as="geometry" />
        </mxCell>
        <mxCell id="QuEZP8PnhDWulCvqXEfY-31" style="edgeStyle=orthogonalEdgeStyle;rounded=0;orthogonalLoop=1;jettySize=auto;html=1;entryX=0;entryY=0.5;entryDx=0;entryDy=0;" edge="1" parent="1" source="QuEZP8PnhDWulCvqXEfY-7" target="QuEZP8PnhDWulCvqXEfY-30">
          <mxGeometry relative="1" as="geometry">
            <Array as="points">
              <mxPoint x="195" y="620" />
              <mxPoint x="195" y="660" />
            </Array>
          </mxGeometry>
        </mxCell>
        <mxCell id="QuEZP8PnhDWulCvqXEfY-7" value="انباردار" style="shape=umlActor;verticalLabelPosition=bottom;verticalAlign=top;html=1;outlineConnect=0;fontSize=18;" vertex="1" parent="1">
          <mxGeometry x="30" y="560" width="40" height="90" as="geometry" />
        </mxCell>
      </root>
    </mxGraphModel>
  </diagram>
</mxfile>
